<?xml version="1.0" standalone="no"?><!DOCTYPE svg PUBLIC "-//W3C//DTD SVG 1.1//EN" "http://www.w3.org/Graphics/SVG/1.1/DTD/svg11.dtd"><svg t="1639307627315" class="icon" viewBox="0 0 1024 1024" version="1.1" xmlns="http://www.w3.org/2000/svg" p-id="2866" xmlns:xlink="http://www.w3.org/1999/xlink" width="200" height="200"><defs><style type="text/css"></style></defs><path d="M860.001543 341.454966c25.569187 0 45.704266-3.045201 45.704265 22.497735V981.472194c0 25.542935-20.135078 42.554058-45.704265 42.554058H163.83186C138.288925 1024 118.153846 1006.988878 118.153846 981.472194V363.926449C118.153846 338.409765 138.288925 341.454966 163.858112 341.454966H275.664239c25.569187 0 52.503464 0.708797 52.503464 26.251732s-26.934277 26.251732-52.503464 26.251732H170.65731v577.538106h682.545034V393.95843h-105.006928c-25.569187 0-52.503464-0.708797-52.503464-26.251732s26.934277-26.251732 52.503464-26.251732h111.806127z m-352.823279 420.027713c-25.359173 0-21.500169-20.791372-21.500169-46.203048V78.937646L328.167703 236.448038c-18.428716 17.719919-28.325619 8.873085-39.718871-0.15751-11.419503-9.030596-7.035464-29.40194 11.393252-47.095608C418.106137 72.768489 480.033973 13.255812 485.678095 10.683142c17.667416-13.860915 35.597349-14.622215 52.503464 0l183.07958 178.511778c19.190016 16.932367 28.561884 36.594914 16.144815 49.379508-9.24061 10.028162-27.485563 9.713141-41.714002-2.12639l-157.510393-157.510392v636.341985c0 25.411677-5.670374 46.203048-31.029547 46.203048z" p-id="2867" fill="#8a8d91"></path></svg>